<?xml version="1.0" encoding="UTF-8" standalone="no"?>
<svg
   xmlns:dc="http://purl.org/dc/elements/1.1/"
   xmlns:cc="http://creativecommons.org/ns#"
   xmlns:rdf="http://www.w3.org/1999/02/22-rdf-syntax-ns#"
   xmlns:svg="http://www.w3.org/2000/svg"
   xmlns="http://www.w3.org/2000/svg"
   xml:space="preserve"
   width="144.15033mm"
   height="112.4828mm"
   version="1.1"
   style="clip-rule:evenodd;fill-rule:evenodd;image-rendering:optimizeQuality;shape-rendering:geometricPrecision;text-rendering:geometricPrecision"
   viewBox="0 0 8422.0096 6571.8287"
   id="svg31"><metadata
     id="metadata35"><rdf:RDF><cc:Work
         rdf:about=""><dc:format>image/svg+xml</dc:format><dc:type
           rdf:resource="http://purl.org/dc/dcmitype/StillImage" /><dc:title></dc:title></cc:Work></rdf:RDF></metadata><defs
     id="defs4"><style
       type="text/css"
       id="style2"><![CDATA[
    .fil0 {fill:black}
    .fil1 {fill:#989898}
    .fil2 {fill:#FEFEFE}
   ]]></style></defs><g
     id="Layer_x0020_1"
     transform="translate(-5582.07,-11017.436)"><metadata
       id="CorelCorpID_0Corel-Layer" /><g
       id="_1560752577232"><path
         class="fil0"
         d="m 10781.67,14113.86 c -8.29,61.04 6.77,128.12 34.09,175.39 59.06,14.89 230.7,11.01 310.93,20.75 151.3,18.37 663.76,130.68 839.19,165.36 224.23,44.34 784.8,230.99 920.65,251.79 76.83,11.77 83.74,-27.05 130.32,-47 l 142.71,131.37 c -360.69,-15.38 -786.42,-136.22 -1134,-221.11 -394.27,-96.3 -728.78,-184.44 -1157.67,-203.35 -219.19,-9.66 -444.59,-21.08 -664.14,-15.35 -195.12,5.11 -414.29,44.87 -611.73,64.4 -57.39,5.68 -1230.73,72.86 -1301.63,66.48 l -59.47,-97.68 c 110.89,-10.74 248.67,-7.96 364.51,-14.68 119.98,-6.96 239.21,-14.47 359.26,-23.13 236.85,-17.1 458.72,-54.05 690.11,-71.95 -13.4,-25.09 -153.93,-140.39 -63.35,-330.9 39.64,-83.36 150.37,-147.27 257.19,-188.32 290.72,-111.72 464.38,-85.55 773.89,-43.06 166.62,22.87 620.64,82.25 737.12,153.27 90.53,55.2 80.31,156.29 -176.1,166.35 -100.29,3.94 -323.69,17.74 -391.88,61.37 z m -3507.65,224.29 c -102.68,-27.8 -263.31,-94.36 -422.84,-138.81 -147.43,-41.09 -298.2,-80.53 -447.31,-120.32 -139.46,-37.22 -513.14,-141.35 -630.57,-216.65 -48.3,-30.99 -155.55,-106.36 -20.36,-136.74 153.37,-34.46 345.31,-45.07 509.07,-59.1 115.85,-9.91 139.22,-11.08 244.87,21.37 75.38,23.18 143.98,48.05 210,78.33 132.15,60.61 250.67,134.81 358.75,209.05 90.35,62.08 160.88,239.49 198.39,362.87 z M 6764.21,13309 c 428.49,-57.81 420.52,245.93 -1.38,302.16 -113.48,15.12 -371.05,3.29 -323.3,-139.72 30.68,-91.89 210.4,-147.03 324.68,-162.44 z m -1182.14,220.58 c 0,138.3 6.73,127.02 79.52,243.6 24.39,39.09 15.4,44.14 56.2,74.8 181.11,136.14 675.12,252.78 890.05,306.7 213.97,53.68 446.61,125.26 653.37,202.69 43.91,16.45 21.65,3.76 37.38,32.5 179.22,327.48 241.68,412.95 568.91,627.66 122.25,80.22 257.62,162.36 414.16,162.36 33.79,0 101.93,-80.4 118.84,-108.31 31.4,-51.79 11.02,-116.85 -0.26,-184.84 -11.08,-66.82 -24.4,-130.75 -38.11,-188.93 -18.15,-77.03 -46.76,-140.62 -54.26,-172.81 227.54,0 470.76,-31.68 716.74,-34.57 l 480.16,-26.54 c 47.05,-0.13 67.94,-5.99 113.27,-9.05 l 344.81,-39.58 c 287.85,-39.81 534.96,-13.2 817.75,-12.79 l 385.46,25.14 c 406.86,70.75 732.29,149.12 1134.5,254.48 37.28,9.77 59.53,20.36 101.15,29.86 173.58,39.71 417.73,72.64 596.39,102.5 38.31,6.4 78.5,11.57 122.06,17.71 106.61,15.05 76,2.43 196.56,74.23 193.86,115.46 395.12,317.17 661.15,317.17 33.41,0 3.18,2.68 26.21,-8.73 -3.41,-40.95 -6.59,-17.12 -82.88,-100.53 -18.08,-19.77 -14.54,-11.96 -34.41,-35.46 -41.12,-48.63 -85.1,-80.04 -123.65,-129.65 -76.86,-98.9 -263.19,-293.55 -134.93,-450.57 25.4,-31.1 63.73,-52.44 96.3,-69.66 -110.02,-207.83 -556.58,-71.66 -637.76,-69.85 -231.15,-345.01 -681.43,-672.63 -1051.08,-879.23 -215.34,-120.36 -521.33,-276.24 -756.12,-370.69 -318.76,-128.23 -703.99,-215.77 -1090.86,-367.94 -80.52,-31.67 -123.12,-68.97 -168.08,-155.08 -122.79,-235.14 -26.59,-646.05 -26.59,-916.48 0,-44.02 -8.25,-22.85 -4.04,-65.05 18.85,-189.02 219.06,-620.72 -9.36,-585.13 -41.04,6.39 -95.59,71.13 -124.31,102.16 -87.06,94.03 -215.6,284.07 -270.01,393.75 l -215.56,456.91 c -163.03,366.72 -196.61,524.8 -624.67,598.13 -144.05,24.67 -522.36,16.84 -730.2,47.31 -155.99,22.89 -430.27,35.97 -611.64,61.05 -346.33,47.9 -793.76,112.78 -1115.67,220.9 -161.39,54.21 -141.32,43.52 -304.21,141.28 -124.78,74.88 -264.15,193.8 -341.74,322.05 -20.98,34.7 -60.54,111.63 -60.54,166.53 z"
         id="path7"
         style="fill:#000000" /><path
         class="fil1"
         d="m 6848.87,16517.87 c -60.56,-15.59 -61.52,-93.53 0,-109.1 49.89,26.96 48.91,82.08 0,109.1 z m -295.03,61.18 c 32.65,-31.28 493.26,-30.95 538.91,-25.29 170.44,21.14 -2.48,87.9 498.73,74.7 86.33,-2.28 304.2,-17.32 375.67,-3.04 l 10.79,64.69 c 32.66,-27.62 7.99,2.98 21.75,-34.21 0.92,-2.51 0.24,-24.63 1.21,-31.33 21.05,4.69 43.3,7.84 65.34,19.07 37.41,19.05 54.11,108.51 84.42,191.17 10.13,-8.06 35.49,-3.44 8.87,-62.37 -11.01,-24.38 -17.83,-42.34 -25.97,-70.19 50.09,41.37 67.79,68.45 100.67,122.21 37.36,7.8 9.94,-7.45 57.23,18.6 45.51,2.41 101.2,73.57 125.93,104.91 47.12,59.75 276.25,266.85 348.16,341.71 99.44,103.53 388.79,325.55 636.56,275.61 5.56,-84.67 -138.43,-254.79 -150.72,-288.88 -14.51,-40.28 -11.38,-71.9 -29.03,-111.53 -17.24,-38.7 -37.08,-46.29 -58.04,-90.8 -59.11,-125.51 -52.77,-135.73 14.61,-185.06 14.09,-10.32 26.08,-19.5 39.45,-31.67 21.38,-19.46 14.12,-25.34 30.26,-18.83 72.05,-49.96 154.13,-117.33 247.87,-139.87 106.03,-25.47 227.57,-21.04 343.51,-39.07 118.83,-18.48 252.45,1.25 376.17,-9.31 145.26,-12.39 242.52,8.09 380.65,8.25 128.37,0.14 256.27,-6.18 384.41,-6.22 66.41,0 125.13,16.11 183.67,13.71 56.07,-2.3 110.05,-22.32 165.5,-29.33 117.52,-14.89 226.72,44.07 286.31,99.71 32.27,30.13 53.78,67.92 73.72,118.65 l 39.19,109.84 c 9.07,55.74 4.95,28.12 -8.13,38.91 20.74,34.39 321.67,308.36 456.9,245.56 4.38,-44.3 -20.4,-58.02 -39.12,-83.36 -20.36,-27.57 -29.89,-43.89 -39.08,-82.89 -12.27,-52 -24.41,-42.78 -40.12,-82.11 -10.14,-25.37 -11.95,-70.32 -19.9,-103.51 -30.35,-126.73 -115.88,-253 -49.8,-386.09 77.43,-155.97 165.68,-322.56 271.02,-453.73 94.22,-117.34 54.2,-59.45 86.45,-147.71 l 104.55,-3.89 c -12.08,-83.24 -20.68,-69.2 25.32,-129.97 21.33,-28.17 67.7,-68.16 49.42,-97.79 -64.85,-30.39 -333.91,184 -383,218.53 -127.68,89.8 -247.48,163.34 -366.56,253.62 -288.08,218.41 -204.06,433.19 -543.89,331.37 -66.6,-19.95 -182.82,-44.4 -237.01,-69.3 l -5.74,-89.04 c -130.39,12.29 -20.32,81.41 -215.6,31.12 -230.68,-59.39 -467.53,-136.11 -677.59,-187.23 -199.13,-48.48 -252.73,-19.1 -370.12,-206.09 -82.48,-131.37 -62.7,-367.66 -72.52,-496.49 -97.75,0.35 -208.51,111.44 -345.13,192.72 -173.61,103.27 -145.16,195.17 -255.7,268.31 -103.34,68.36 -328.01,54.29 -467.21,58.85 -455.08,14.94 -937.15,79.73 -1355.49,215.15 -139.27,45.09 -666.69,200.24 -746.59,298.59 8,34.55 39.8,68.61 68.84,80.64 z"
         id="path9"
         style="fill:#989898" /><path
         class="fil2"
         d="m 10781.67,14113.86 c 68.19,-43.63 291.59,-57.43 391.88,-61.37 256.41,-10.06 266.63,-111.15 176.1,-166.35 -116.48,-71.02 -570.5,-130.4 -737.12,-153.27 -309.51,-42.49 -483.17,-68.66 -773.89,43.06 -106.82,41.05 -217.55,104.96 -257.19,188.32 -90.58,190.51 49.95,305.81 63.35,330.9 -231.39,17.9 -453.26,54.85 -690.11,71.95 -120.05,8.66 -239.28,16.17 -359.26,23.13 -115.84,6.72 -253.62,3.94 -364.51,14.68 l 59.47,97.68 c 70.9,6.38 1244.24,-60.8 1301.63,-66.48 197.44,-19.53 416.61,-59.29 611.73,-64.4 219.55,-5.73 444.95,5.69 664.14,15.35 428.89,18.91 763.4,107.05 1157.67,203.35 347.58,84.89 773.31,205.73 1134,221.11 l -142.71,-131.37 c -46.58,19.95 -53.49,58.77 -130.32,47 -135.85,-20.8 -696.42,-207.45 -920.65,-251.79 -175.43,-34.68 -687.89,-146.99 -839.19,-165.36 -80.23,-9.74 -251.87,-5.86 -310.93,-20.75 -27.32,-47.27 -42.38,-114.35 -34.09,-175.39 z"
         id="path11"
         style="fill:#fefefe" /><path
         class="fil2"
         d="m 7274.02,14338.15 c -37.51,-123.38 -108.04,-300.79 -198.39,-362.87 -108.08,-74.24 -226.6,-148.44 -358.75,-209.05 -66.02,-30.28 -134.62,-55.15 -210,-78.33 -105.65,-32.45 -129.02,-31.28 -244.87,-21.37 -163.76,14.03 -355.7,24.64 -509.07,59.1 -135.19,30.38 -27.94,105.75 20.36,136.74 117.43,75.3 491.11,179.43 630.57,216.65 149.11,39.79 299.88,79.23 447.31,120.32 159.53,44.45 320.16,111.01 422.84,138.81 z"
         id="path13"
         style="fill:#fefefe" /><path
         class="fil2"
         d="m 9248.64,16838.52 c -44.01,81.07 -133.79,46.61 -102.68,168.87 355.56,41.04 855.52,-69.51 1196.46,-128.38 -21.96,-16.91 -49.04,-40.2 -67.02,-53.78 -14.4,-12.62 -14.39,18.82 -10.81,-21.29 104.31,7.65 296.79,-1.04 402.31,-11.79 l 15.04,10.09 c -28.13,16.94 -22.57,9.49 -34.29,42.22 l 333.59,-92.56 c 40.04,23.54 40.03,48.47 96.11,66.55 51.87,-69.83 10.57,-117.96 146.07,-137.75 251.09,-36.65 228.13,3.14 364.85,180.21 44.56,57.71 85.98,90.66 133.24,142.88 13.08,-10.79 17.2,16.83 8.13,-38.91 l -39.19,-109.84 c -19.94,-50.73 -41.45,-88.52 -73.72,-118.65 -59.59,-55.64 -168.79,-114.6 -286.31,-99.71 -55.45,7.01 -109.43,27.03 -165.5,29.33 -58.54,2.4 -117.26,-13.71 -183.67,-13.71 -128.14,0.04 -256.04,6.36 -384.41,6.22 -138.13,-0.16 -235.39,-20.64 -380.65,-8.25 -123.72,10.56 -257.34,-9.17 -376.17,9.31 -115.94,18.03 -237.48,13.6 -343.51,39.07 -93.74,22.54 -175.82,89.91 -247.87,139.87 z"
         id="path15"
         style="fill:#fefefe" /><path
         class="fil2"
         d="m 6553.84,16579.05 c 68.81,58.39 282.77,122.88 398.13,109.01 61.36,-7.38 129.36,-71.99 185.82,-60.04 52.65,11.16 146.49,45.8 183.57,70.33 -73.69,-3.76 -126.35,-35.54 -188.01,-3.1 -46.89,24.69 -97.1,47.98 -146.51,63.57 59.6,119.32 482.43,183.72 652.16,205.62 263.32,33.98 535.7,43.55 810.16,42.5 -26.93,-62.98 -129.89,-137.61 -157.7,-163.88 -47.29,-26.05 -19.87,-10.8 -57.23,-18.6 -32.88,-53.76 -50.58,-80.84 -100.67,-122.21 8.14,27.85 14.96,45.81 25.97,70.19 26.62,58.93 1.26,54.31 -8.87,62.37 -30.31,-82.66 -47.01,-172.12 -84.42,-191.17 -22.04,-11.23 -44.29,-14.38 -65.34,-19.07 -0.97,6.7 -0.29,28.82 -1.21,31.33 -13.76,37.19 10.91,6.59 -21.75,34.21 l -10.79,-64.69 c -71.47,-14.28 -289.34,0.76 -375.67,3.04 -501.21,13.2 -328.29,-53.56 -498.73,-74.7 -45.65,-5.66 -506.26,-5.99 -538.91,25.29 z"
         id="path17"
         style="fill:#fefefe" /><path
         class="fil0"
         d="m 11721.51,17003.79 c -47.26,-52.22 -88.68,-85.17 -133.24,-142.88 -136.72,-177.07 -113.76,-216.86 -364.85,-180.21 -135.5,19.79 -94.2,67.92 -146.07,137.75 -56.08,-18.08 -56.07,-43.01 -96.11,-66.55 l -333.59,92.56 c 11.72,-32.73 6.16,-25.28 34.29,-42.22 l -15.04,-10.09 c -18.87,31.49 -31.05,29.76 -45.66,64.26 16,34.48 45.78,52.66 53.2,94.21 -95.13,8.34 -136.7,-37.06 -208.71,-58.33 -59.91,-17.71 -112.9,-12.94 -158.73,-52.97 -33.49,-29.25 -18.24,-31.05 -31.6,-14.09 17.98,13.58 45.06,36.87 67.02,53.78 -340.94,58.87 -840.9,169.42 -1196.46,128.38 -31.11,-122.26 58.67,-87.8 102.68,-168.87 -16.14,-6.51 -8.88,-0.63 -30.26,18.83 -13.37,12.17 -25.36,21.35 -39.45,31.67 -67.38,49.33 -73.72,59.55 -14.61,185.06 20.96,44.51 40.8,52.1 58.04,90.8 17.65,39.63 14.52,71.25 29.03,111.53 12.29,34.09 156.28,204.21 150.72,288.88 -247.77,49.94 -537.12,-172.08 -636.56,-275.61 -71.91,-74.86 -301.04,-281.96 -348.16,-341.71 -24.73,-31.34 -80.42,-102.5 -125.93,-104.91 27.81,26.27 130.77,100.9 157.7,163.88 -274.46,1.05 -546.84,-8.52 -810.16,-42.5 -169.73,-21.9 -592.56,-86.3 -652.16,-205.62 49.41,-15.59 99.62,-38.88 146.51,-63.57 61.66,-32.44 114.32,-0.66 188.01,3.1 -37.08,-24.53 -130.92,-59.17 -183.57,-70.33 -56.46,-11.95 -124.46,52.66 -185.82,60.04 -115.36,13.87 -329.32,-50.62 -398.13,-109.01 -29.04,-12.03 -60.84,-46.09 -68.84,-80.64 79.9,-98.35 607.32,-253.5 746.59,-298.59 418.34,-135.42 900.41,-200.21 1355.49,-215.15 139.2,-4.56 363.87,9.51 467.21,-58.85 110.54,-73.14 82.09,-165.04 255.7,-268.31 136.62,-81.28 247.38,-192.37 345.13,-192.72 9.82,128.83 -9.96,365.12 72.52,496.49 117.39,186.99 170.99,157.61 370.12,206.09 210.06,51.12 446.91,127.84 677.59,187.23 195.28,50.29 85.21,-18.83 215.6,-31.12 l 5.74,89.04 c 54.19,24.9 170.41,49.35 237.01,69.3 339.83,101.82 255.81,-112.96 543.89,-331.37 119.08,-90.28 238.88,-163.82 366.56,-253.62 49.09,-34.53 318.15,-248.92 383,-218.53 18.28,29.63 -28.09,69.62 -49.42,97.79 -46,60.77 -37.4,46.73 -25.32,129.97 l -104.55,3.89 c -32.25,88.26 7.77,30.37 -86.45,147.71 -105.34,131.17 -193.59,297.76 -271.02,453.73 -66.08,133.09 19.45,259.36 49.8,386.09 7.95,33.19 9.76,78.14 19.9,103.51 15.71,39.33 27.85,30.11 40.12,82.11 9.19,39 18.72,55.32 39.08,82.89 18.72,25.34 43.5,39.06 39.12,83.36 -135.23,62.8 -436.16,-211.17 -456.9,-245.56 z m -1026.82,-156.11 c 28.58,-18.34 253.35,-78.36 298.85,-81.29 20.97,26.84 43.18,39.22 64.66,63.83 14.07,6.25 15.64,6.93 36.62,8.73 1.86,-22.37 18.84,-65.99 28.61,-84.93 13.35,-25.88 32.67,-40.56 63.98,-49.56 26.22,-7.53 185.54,-24.59 209.64,-19.84 57.24,11.3 83.69,57.71 120.97,106.83 87.22,114.92 164.06,205.46 273.53,302.91 38.34,34.13 165.13,125.86 211.46,146.66 83.62,37.54 92.42,34.12 192.61,25.79 0,-114.25 -57.05,-87.38 -76.22,-168.31 -17.57,-74.15 12.41,-8.37 -35.8,-86.47 -26.17,-42.4 -12.2,-47.69 -22.77,-99.49 -13.39,-65.67 -38.61,-126.74 -58.62,-185.91 -46.83,-138.5 -12.41,-211.51 78.14,-360.9 32.07,-52.91 57.48,-102.03 90.74,-153.8 l 154.47,-212.4 c 48.79,-59.34 19.03,-36.23 36.06,-77.42 27.69,0 97.11,10.11 107.49,-10.74 18.87,-37.89 -51.62,-22.45 27.03,-134.24 52.73,-74.93 68.41,-72.44 40.21,-125.71 -113.34,26.39 -94.79,28.52 -203.76,93.23 -67.66,40.18 -118.41,81.54 -179.29,126.42 -139.68,103 -409.62,261.79 -514.28,385.38 -128.72,152 -132.76,280.62 -365.66,220.68 -42.35,-10.9 -73.94,-21.32 -115.49,-33.02 -22.78,-6.39 -104.27,-24.54 -123.68,-33.55 -57.75,-26.8 14.16,-150.32 -99.43,-89.91 -26.11,13.88 -26.91,26.27 -45.66,33.92 -32.39,13.22 -205.31,-39.66 -246.82,-50.03 -159.92,-39.91 -316.53,-96.95 -475.26,-136.21 -81.73,-20.22 -154.66,-39.89 -239.16,-57.87 -81.64,-17.35 -86.45,-20.42 -171.13,-134.56 -89.19,-120.22 -85.96,-367.17 -85.96,-525.31 -88.17,0 -94.98,2.9 -188.49,73.57 -27.84,21.04 -48.25,36.26 -74.73,56.28 -79.44,60.08 -148.14,65.63 -227.51,165.54 -37.65,47.41 -68.37,120.1 -115.44,155.32 -106.54,79.72 -292.3,58.91 -468.71,64.18 -72.36,2.15 -170.28,18.05 -244.24,17.84 -191.72,-0.52 -720.49,83.77 -918.54,138.5 -149.37,41.29 -680.97,210.58 -796.9,268.83 -34.09,17.12 -56.01,29.62 -84.83,46.17 -33.12,19.04 -87.53,35.92 -79.07,74.67 16,73.3 176.03,139.89 240.35,157.98 239.7,67.44 270.79,14.37 363.36,12.31 l -58.33,37.75 c -32.03,17.34 -29.89,23.86 -55.24,40.82 54.34,81.13 167.53,113.37 268.92,141.63 l 519.69,91.81 c 66.54,8.19 132.51,12.02 191.15,18.52 154.93,17.16 443.74,3.17 505.72,9.74 50.63,5.36 93.06,83.28 168.3,146.13 88.31,73.78 135.24,134.81 213.08,197.42 78.02,62.77 152.76,120.62 247.47,163.07 73.45,32.92 246.76,88.77 340.63,43.75 0,-82.54 -80.05,-203.89 -129.27,-263.72 -61.26,-74.47 3.47,-82.63 -90.55,-206.39 -19.37,-25.49 -20.49,-44.08 -33.54,-71.26 l 419.34,-17.48 c 255.95,-8 504.7,-80.08 754.94,-119.05 151.23,-23.55 212.57,99.75 354.61,66.68 -3.59,-43.11 -32.74,-75.42 -52.42,-104.79 l 47.69,-5.93 c 1.62,-0.48 4.43,-1.64 6.48,-2.8 z"
         id="path19"
         style="fill:#000000" /><path
         class="fil2"
         d="m 6764.21,13309 c -114.28,15.41 -294,70.55 -324.68,162.44 -47.75,143.01 209.82,154.84 323.3,139.72 421.9,-56.23 429.87,-359.97 1.38,-302.16 z"
         id="path21"
         style="fill:#fefefe" /><path
         class="fil1"
         d="m 10275.4,16825.23 c 13.36,-16.96 -1.89,-15.16 31.6,14.09 45.83,40.03 98.82,35.26 158.73,52.97 72.01,21.27 113.58,66.67 208.71,58.33 -7.42,-41.55 -37.2,-59.73 -53.2,-94.21 14.61,-34.5 26.79,-32.77 45.66,-64.26 -105.52,10.75 -298,19.44 -402.31,11.79 -3.58,40.11 -3.59,8.67 10.81,21.29 z"
         id="path23"
         style="fill:#989898" /><path
         class="fil2"
         d="m 10694.69,16847.68 c 69.77,0 125.51,-1.01 182.99,-7.47 31.43,-3.51 63.51,-0.08 95.13,-0.99 43.86,-1.24 43.06,-9 85.39,-9 -21.48,-24.61 -43.69,-36.99 -64.66,-63.83 -45.5,2.93 -270.27,62.95 -298.85,81.29 z"
         id="path25"
         style="fill:#fefefe" /><path
         class="fil0"
         d="m 6848.87,16517.87 c 48.91,-27.02 49.89,-82.14 0,-109.1 -61.52,15.57 -60.56,93.51 0,109.1 z"
         id="path27"
         style="fill:#000000" /></g></g></svg>