<?xml version="1.0" encoding="UTF-8" standalone="no"?>
<!-- Created with Inkscape (http://www.inkscape.org/) -->

<svg
   xmlns:dc="http://purl.org/dc/elements/1.1/"
   xmlns:cc="http://creativecommons.org/ns#"
   xmlns:rdf="http://www.w3.org/1999/02/22-rdf-syntax-ns#"
   xmlns:svg="http://www.w3.org/2000/svg"
   xmlns="http://www.w3.org/2000/svg"
   xmlns:sodipodi="http://sodipodi.sourceforge.net/DTD/sodipodi-0.dtd"
   xmlns:inkscape="http://www.inkscape.org/namespaces/inkscape"
   width="507.811"
   height="241.77901"
   id="svg2"
   version="1.1"
   inkscape:version="0.48.3.1 r9886"
   sodipodi:docname="great white shark size.svg">
  <defs
     id="defs4" />
  <sodipodi:namedview
     id="base"
     pagecolor="#ffffff"
     bordercolor="#666666"
     borderopacity="1.0"
     inkscape:pageopacity="0.0"
     inkscape:pageshadow="2"
     inkscape:zoom="1.4"
     inkscape:cx="545.53889"
     inkscape:cy="161.7501"
     inkscape:document-units="px"
     inkscape:current-layer="layer1"
     showgrid="false"
     inkscape:window-width="1920"
     inkscape:window-height="1017"
     inkscape:window-x="-8"
     inkscape:window-y="-8"
     inkscape:window-maximized="1"
     fit-margin-top="0"
     fit-margin-left="0"
     fit-margin-right="0"
     fit-margin-bottom="0" />
  <metadata
     id="metadata7">
    <rdf:RDF>
      <cc:Work
         rdf:about="">
        <dc:format>image/svg+xml</dc:format>
        <dc:type
           rdf:resource="http://purl.org/dc/dcmitype/StillImage" />
        <dc:title />
      </cc:Work>
    </rdf:RDF>
  </metadata>
  <g
     inkscape:groupmode="layer"
     id="layer1"
     inkscape:label="right fin"
     style="display:none">
    <path
       style="fill:#ffffff;stroke:#000000;stroke-width:1px;stroke-linecap:butt;stroke-linejoin:miter;stroke-opacity:1"
       d="m 301.60714,187.04686 c 0,0 2.15627,-0.0439 3.125,0.35715 1.19392,0.49421 2.01133,1.62311 3.03572,2.41071 1.26466,0.97234 2.49354,2.00052 3.83928,2.85714 0.7414,0.47193 2.32143,1.25 2.32143,1.25 0.55675,0.24445 1.03366,0.0513 1.33929,-0.71428 0,0 0.89085,-2.05512 1.42857,-3.03572 0.32157,-0.58643 0.61784,-1.20492 1.07143,-1.69642 0.50461,-0.54679 1.15618,-0.94268 1.78571,-1.33929 0.65326,-0.41156 1.35115,-0.75092 2.05357,-1.07143 0.96035,-0.43821 1.96939,-0.76109 2.94643,-1.16071 0.98747,-0.40388 2.94643,-1.25 2.94643,-1.25 l 3.75,-0.80357"
       id="path3018"
       inkscape:connector-curvature="0"
       sodipodi:nodetypes="csssccssssscc" />
  </g>
  <g
     inkscape:groupmode="layer"
     id="layer4"
     inkscape:label="mouth"
     style="display:inline"
     transform="translate(-94.755211,-217.49229)">
    <path
       style="fill:#000000;stroke:#000000;stroke-width:1px;stroke-linecap:butt;stroke-linejoin:miter;stroke-opacity:1"
       d="m 135.32887,384.05157 3.44084,-8.42846 22.79156,1.19956 -2.80948,10.6066 -16.22558,5.90308 -4.29315,-2.0203 -0.9008,-0.8456 c 0,0 2.80213,-2.26721 3.78381,-2.74712 2.38747,-1.37956 7.42043,-3.62899 8.52679,-5.53572 -1.69421,0.18306 -4.8612,1.00584 -5.625,1.1607 l -8.4445,1.64256 z"
       id="path3025"
       inkscape:connector-curvature="0"
       sodipodi:nodetypes="cccccccccccc" />
  </g>
  <g
     inkscape:groupmode="layer"
     id="layer2"
     inkscape:label="trace"
     style="display:inline"
     transform="translate(-94.755211,-217.49229)">
    <path
       style="fill:#ffffff;stroke:none"
       d="m 480.32754,396.2681 c 0,0 0.66574,-3.67282 1.51522,-5.3033 0.80185,-1.53905 1.9164,-2.97101 3.283,-4.04061 1.05134,-0.82286 2.33909,-1.34321 3.62424,-1.70487 3.68895,-1.03812 7.62742,-0.7628 11.42857,-1.25 2.02898,-0.26006 3.86932,-0.65659 5.89286,-0.35714 1.1063,0.16371 2.2919,0.26047 3.21429,0.89286 1.49313,1.02368 2.7025,2.41805 3.92857,3.75 1.34733,1.46367 2.53349,3.06878 3.75,4.64286 2.08208,2.69405 3.88044,5.60803 6.07143,8.21428 2.27573,2.70705 4.85065,5.14828 7.32142,7.67857 2.6465,2.71027 5.18778,5.53797 8.03572,8.03572 2.42565,2.12739 5.10141,3.95176 7.67857,5.89285 2.71971,2.04846 5.23404,4.42489 8.21429,6.07143 2.5736,1.42187 5.37778,2.44009 8.21428,3.21429 1.80313,0.49215 5.53572,0.89286 5.53572,0.89286 l 3.92857,-0.53572 0.35714,-3.39286 c 0,0 -4.9768,-5.56079 -6.42857,-8.92857 -0.62387,-1.44723 -0.30167,-3.18196 -0.89286,-4.64285 -0.69363,-1.71404 -2.3672,-2.91886 -3.03571,-4.64286 -0.80665,-2.08023 -0.5906,-4.42842 -1.07143,-6.60714 -0.75944,-3.44119 -1.82346,-6.8096 -2.85714,-10.17858 -1.04905,-3.41907 -2.78541,-6.65415 -3.39286,-10.17857 -0.51572,-2.99218 -0.76396,-6.12781 -0.17857,-9.10714 0.55001,-2.79927 2.17389,-5.27788 3.39285,-7.85714 1.94513,-4.11582 3.9827,-8.19534 6.25,-12.14286 3.58571,-6.24296 7.43811,-12.3448 11.60715,-18.21429 3.11692,-4.38824 10,-12.67857 10,-12.67857 l -0.17857,-3.39285 9.64285,-0.35715 -1.60714,-6.42857 2.85714,-4.10714 5.71429,-7.67857 -1.25,-2.5 -5.35714,1.07143 -7.85715,4.46428 -8.75,5.71429 -11.42857,8.39285 c 0,0 -11.53737,7.58209 -17.14286,11.60715 -7.10763,5.10368 -14.62375,9.7884 -20.89285,15.89285 -6.12738,5.96646 -9.41468,14.63054 -16.07143,20 -1.45037,1.1699 -3.18646,2.07188 -5,2.5 -2.43312,0.57438 -5.01966,0.31293 -7.5,0 -4.75535,-0.59996 -9.29827,-2.333 -13.92857,-3.57142 -4.3089,-1.15246 -8.59974,-2.37105 -12.89077,-3.58897 -1.29737,-0.36824 -1.53551,-4.37681 -1.08411,-7.543 -0.64963,-1.04641 -3.99853,0.0991 -4.66215,0.33312 -2.41596,0.85185 -4.29819,4.38949 -6.36297,3.83456 -8.2539,-2.2183 -16.58086,-4.16123 -24.82143,-6.42857 -10.46125,-2.87834 -20.76839,-6.30386 -31.25,-9.10714 -9.46982,-2.53268 -28.57143,-6.96429 -28.57143,-6.96429 0,0 -8.55194,-8.60512 -11.25,-13.92857 -1.89286,-3.73474 -2.4616,-8.02404 -3.21429,-12.14286 -1.04345,-5.70985 -1.68604,-11.51787 -1.78571,-17.32143 -0.0374,-2.17739 0.51952,-4.34138 0.44643,-6.51786 -0.0444,-1.3209 -0.53572,-3.92857 -0.53572,-3.92857 0,0 -3.21738,0.0608 -4.73214,0.53572 -2.03305,0.63739 -3.82215,1.90023 -5.625,3.03571 -4.23626,2.6681 -7.94758,6.1072 -12.14286,8.83929 -2.53662,1.65192 -5.30368,2.92779 -7.85714,4.55357 -2.01968,1.28592 -4.1587,2.45626 -5.89286,4.10714 -2.39729,2.28215 -4.09883,5.19931 -6.07142,7.85714 -1.74232,2.34758 -2.9933,5.10482 -5.08929,7.14286 -1.95296,1.89896 -4.25593,3.54346 -6.78571,4.55357 -3.78517,1.51137 -7.99916,1.63713 -12.05358,2.05357 -8.23583,0.84592 -16.55476,0.43817 -24.82143,0.89286 -12.06835,0.66379 -24.14975,1.32856 -36.16071,2.67857 -15.64355,1.75831 -31.32984,3.63598 -46.69643,7.05358 -14.33091,3.18726 -28.25602,8.00536 -42.23214,12.5 -11.21836,3.60776 -22.59663,6.88389 -33.39286,11.60714 -5.03792,2.20404 -14.55357,7.76786 -14.55357,7.76786 -2.166723,1.27296 -1.799083,2.6666 -0.446428,4.10714 0,0 1.780607,2.25951 5.446428,5.08928 1.91802,1.48058 4.21245,2.41321 6.42857,3.39286 2.40239,1.06199 4.88976,1.94097 7.41072,2.67857 2.46002,0.71977 4.97598,1.25022 7.5,1.69643 2.30469,0.40744 4.63152,0.70351 6.96428,0.89286 1.72155,0.13974 5.17857,0.17859 5.17857,0.17859 l 2.67857,-0.80357 c 0,0 3.99116,-1.97903 5.87055,-3.10267 0.80171,-0.47932 2.27749,-1.0626 3.16963,-1.33932 0.85467,-0.2651 0.78816,-0.68387 1.67411,-0.55803 1.03468,0.14697 1.95955,0.72759 2.94643,1.07143 0.97763,0.34062 2.94643,0.98214 2.94643,0.98214 0,0 -1.85748,1.70427 -2.75703,2.44321 -2.7601,1.8747 -5.48757,3.44007 -8.58226,4.3425 -1.63885,0.46566 -4.82143,1.69643 -4.82143,1.69643 -1.37714,0.30484 -2.17078,0.80418 -0.71428,2.05357 l 5.08928,4.28572 10.44643,3.83928 c 0,0 9.28319,2.86501 14.01786,3.92858 6.74551,1.51527 13.60296,2.49988 20.44643,3.48214 5.072,0.72799 10.17132,1.2561 15.26785,1.78571 5.5585,0.57762 11.1174,1.19399 16.69643,1.51786 7.04397,0.40891 14.10649,0.38508 21.16072,0.53571 6.84471,0.14616 13.6899,0.27722 20.53571,0.35715 19.96923,0.23316 59.91072,0.35714 59.91072,0.35714 l 33.21428,-1.16071 27.94643,-3.125 11.16072,-2.41072 3.30357,-0.71428 24.00068,-4.13515 22.87432,-2.472 z"
       id="path2997"
       inkscape:connector-curvature="0"
       sodipodi:nodetypes="csssssssssssssscccsssssssssscccccccccccssssssscsssscsssscssssssssssssssccsssssccsssscccccccsssssscccccccc" />
  </g>
  <g
     inkscape:groupmode="layer"
     id="layer7"
     inkscape:label="dorsal shading"
     transform="translate(-94.755211,-217.49229)">
    <path
       style="fill:#999999;stroke:none;display:inline"
       d="m 538.44224,416.80229 c 2.42565,2.12739 5.10141,3.95176 7.67857,5.89285 2.71971,2.04846 5.23404,4.42489 8.21429,6.07143 2.5736,1.42187 5.37778,2.44009 8.21428,3.21429 1.80313,0.49215 5.53572,0.89286 5.53572,0.89286 l 3.92857,-0.53572 0.35714,-3.39286 c 0,0 -4.9768,-5.56079 -6.42857,-8.92857 -0.62387,-1.44723 -0.30167,-3.18196 -0.89286,-4.64285 -0.69363,-1.71404 -2.3672,-2.91886 -3.03571,-4.64286 -0.80665,-2.08023 -0.5906,-4.42842 -1.07143,-6.60714 -0.75944,-3.44119 -1.82346,-6.8096 -2.85714,-10.17858 -1.04905,-3.41907 -2.78541,-6.65415 -3.39286,-10.17857 -0.51572,-2.99218 -0.76396,-6.12781 -0.17857,-9.10714 0.55001,-2.79927 2.17389,-5.27788 3.39285,-7.85714 1.94513,-4.11582 3.9827,-8.19534 6.25,-12.14286 3.58571,-6.24296 7.43811,-12.3448 11.60715,-18.21429 3.11692,-4.38824 10,-12.67857 10,-12.67857 l -0.17857,-3.39285 9.64285,-0.35715 -1.60714,-6.42857 2.85714,-4.10714 5.71429,-7.67857 -1.25,-2.5 -5.35714,1.07143 -7.85715,4.46428 -8.75,5.71429 -11.42857,8.39285 c 0,0 -11.53737,7.58209 -17.14286,11.60715 -7.10763,5.10368 -14.62375,9.7884 -20.89285,15.89285 -6.12738,5.96646 -9.41468,14.63054 -16.07143,20 -1.45037,1.1699 -3.18646,2.07188 -5,2.5 -2.43312,0.57438 -5.01966,0.31293 -7.5,0 -4.75535,-0.59996 -9.29827,-2.333 -13.92857,-3.57142 -4.3089,-1.15246 -8.59974,-2.37105 -12.89077,-3.58897 -1.29737,-0.36824 -1.53551,-4.37681 -1.08411,-7.543 -0.64963,-1.04641 -3.99853,0.0991 -4.66215,0.33312 -2.41596,0.85185 -4.29819,4.38949 -6.36297,3.83456 -8.2539,-2.2183 -16.58086,-4.16123 -24.82143,-6.42857 -10.46125,-2.87834 -20.76839,-6.30386 -31.25,-9.10714 -9.46982,-2.53268 -28.57143,-6.96429 -28.57143,-6.96429 0,0 -8.55194,-8.60512 -11.25,-13.92857 -1.89286,-3.73474 -2.4616,-8.02404 -3.21429,-12.14286 -1.04345,-5.70985 -1.68604,-11.51787 -1.78571,-17.32143 -0.0374,-2.17739 0.51952,-4.34138 0.44643,-6.51786 -0.0444,-1.3209 -0.53572,-3.92857 -0.53572,-3.92857 0,0 -3.21738,0.0608 -4.73214,0.53572 -2.03305,0.63739 -3.82215,1.90023 -5.625,3.03571 -4.23626,2.6681 -7.94758,6.1072 -12.14286,8.83929 -2.53662,1.65192 -5.30368,2.92779 -7.85714,4.55357 -2.01968,1.28592 -4.1587,2.45626 -5.89286,4.10714 -2.39729,2.28215 -4.09883,5.19931 -6.07142,7.85714 -1.74232,2.34758 -2.9933,5.10482 -5.08929,7.14286 -1.95296,1.89896 -4.25593,3.54346 -6.78571,4.55357 -3.78517,1.51137 -7.99916,1.63713 -12.05358,2.05357 -8.23583,0.84592 -16.55476,0.43817 -24.82143,0.89286 -12.06835,0.66379 -24.14975,1.32856 -36.16071,2.67857 -15.64355,1.75831 -31.32984,3.63598 -46.69643,7.05358 -14.33091,3.18726 -28.25602,8.00536 -42.23214,12.5 -11.21836,3.60776 -22.59663,6.88389 -33.39286,11.60714 -5.03792,2.20404 -14.553575,7.76786 -14.553575,7.76786 -2.166723,1.27296 -1.799083,2.6666 -0.446428,4.10714 0,0 0.83457,1.05903 2.537274,2.63504 l 0.737343,0.0539 c 0,0 3.856546,0.80974 5.808376,0.75761 2.31066,-0.0617 4.52031,-1.01543 6.81853,-1.26269 2.67959,-0.28829 5.38617,-0.25007 8.08122,-0.25254 2.86334,-0.003 5.72297,0.24715 8.5863,0.25254 3.28407,0.006 6.56518,-0.21045 9.84899,-0.25254 2.02014,-0.0259 4.04907,-0.18471 6.06091,0 2.30181,0.21133 4.63823,0.49505 6.81853,1.26269 2.34471,0.82552 4.21583,2.72566 6.56599,3.53554 2.82616,0.97391 5.86226,1.2402 8.83884,1.51523 5.78435,0.53445 11.61637,0.3041 17.42513,0.25253 2.61081,-0.0232 5.21877,-0.18009 7.82868,-0.25253 3.6193,-0.10046 7.23863,-0.28911 10.85914,-0.25254 7.75142,0.0783 15.88161,-1.44753 23.23351,1.01015 8.03855,2.68723 12.74217,15.00058 20.96066,17.07324 6.07534,1.53217 13.13704,8.41569 19.40211,8.33684 11.2332,-0.14138 17.85466,-4.89327 28.94472,-6.68637 6.14323,-0.99327 25.74339,-0.40663 31.58149,-2.56127 13.14212,-8.06149 13.83939,-12.33692 38.00699,-12.87944 4.66412,0.16996 9.23173,-1.47255 13.8896,-1.76777 7.39295,-0.46857 14.81907,0.22761 22.22336,0 5.47942,-0.16844 10.93309,-1.04586 16.41498,-1.01015 5.65558,0.0368 11.2673,1.08008 16.92005,1.26269 8.4981,0.27453 17.00392,-0.21045 25.50635,-0.25254 5.72413,-0.0283 11.46184,-0.39199 17.1726,0 2.45853,0.16875 4.85948,0.97913 7.3236,1.01015 7.53851,0.0949 15.05309,-3.84452 22.4759,-2.52538 6.48645,1.15274 13.03316,4.16644 17.67767,8.83884 4.43226,4.45889 6.08424,11.04925 8.33375,16.92005 1.00122,2.613 0.81334,5.69374 2.27285,8.08122 0.66591,1.08931 -0.0391,0.10623 2.80885,2.60398 z"
       id="path2997-7"
       inkscape:connector-curvature="0"
       sodipodi:nodetypes="cssscccsssssssssscccccccccccssssssscsssscsssscssssssssssssssccccssssssssssssssssccssssssssssscc" />
    <path
       style="fill:#000000;stroke:none"
       d="m 155.17857,381.11218 13.75,5.17857 -16.07143,-2.67857 z"
       id="path3097"
       inkscape:connector-curvature="0" />
  </g>
  <g
     inkscape:groupmode="layer"
     id="layer8"
     inkscape:label="diver"
     transform="translate(-94.755211,-217.49229)">
    <g
       id="g3137"
       transform="matrix(-0.62567618,0.26215478,0.26215478,0.62567618,610.95349,162.73098)">
      <path
         sodipodi:nodetypes="csssssscsssssssccsssssssscc"
         inkscape:connector-curvature="0"
         id="path2997-0"
         d="m 244.43581,71.02153 c 0,0 -4.64211,-0.16992 -6.96429,-0.17857 -1.63716,-0.006 -3.27598,0.17875 -4.91071,0.0893 -1.16847,-0.0639 -2.43173,0.0694 -3.48214,-0.44643 -0.86896,-0.42669 -1.30119,-1.44442 -2.05358,-2.05357 -3.14381,-2.54528 -6.24422,-4.61024 -9.8629,-6.41775 -3.48719,-1.74183 -8.3959,-2.6753 -12.05542,-4.01785 -5.74593,-2.10798 -16.47453,-6.52869 -16.47453,-6.52869 0,0 1.31457,-2.23205 1.07143,-3.39286 -0.25944,-1.23861 -0.57478,-2.05345 -1.74239,-2.54147 -2.2833,-0.95434 -5.6946,0.061 -8.16833,0.13076 -7.88382,0.22236 -15.78904,0.40162 -23.66071,-0.0893 -5.17655,-0.32284 -9.51563,-0.924 -14.62568,-1.81187 -3.42532,-0.59514 -7.77665,-0.96612 -11.24803,-1.70125 -2.83659,-0.60071 -5.61267,-1.65454 -8.43367,-1.99009 -2.18717,-0.26016 -6.22834,-0.65751 -6.22834,-0.65751 -2.11313,1.03895 -2.748,2.61544 -1.16071,5 0,0 4.4445,1.6133 6.74839,1.86022 6.17638,0.66194 10.28783,1.51417 15.46797,2.2097 6.57198,0.88241 11.10959,1.68069 17.61453,2.96732 3.66527,0.72496 8.58055,1.31857 12.0587,2.68322 3.1208,1.22444 7.01671,3.16137 10.06996,4.54569 3.75983,1.70467 7.52052,2.7226 11.26951,4.45098 5.16791,2.38254 9.99031,5.45605 14.89975,8.33376 3.74906,2.19754 7.50228,4.39843 11.11168,6.81853 1.91351,1.28301 5.58094,4.07701 5.58094,4.07701 l 5.35714,5"
         style="fill:#000000;stroke:#ffffff;stroke-width:0.60000002;stroke-linecap:butt;stroke-linejoin:miter;stroke-miterlimit:4;stroke-opacity:1;stroke-dasharray:none" />
      <path
         sodipodi:nodetypes="cssssssssssssssssssscscssssccccsccsssssssssccccccccsssccccssssssssssscssssssssssscc"
         inkscape:connector-curvature="0"
         id="path3000-9"
         d="m 110.50724,160.57509 c 0,0 12.24832,0.11058 18.21428,-1.07142 5.18873,-1.02801 10.2888,-2.77352 15,-5.17858 4.98597,-2.54533 9.40617,-6.1116 13.75,-9.64285 5.13013,-4.17047 9.4895,-9.21683 14.46429,-13.57143 5.02953,-4.40251 10.06401,-8.83946 15.53571,-12.67857 6.64344,-4.66124 10.2835,-7.03039 17.32143,-11.07143 5.24443,-3.01125 13.85822,-7.60949 19.55358,-9.64286 3.70536,-1.3229 7.79343,-1.41033 11.51785,-2.67857 2.46963,-0.84096 4.59503,-2.47924 6.96429,-3.57143 5.26018,-2.42485 10.70224,-4.43427 16.07142,-6.60714 7.00831,-2.83622 14.00912,-5.69389 21.07143,-8.39286 4.2041,-1.60666 8.31809,-3.52841 12.67857,-4.64286 5.42375,-1.3862 11.09514,-1.52208 16.60715,-2.5 2.63217,-0.46699 5.29491,-0.84467 7.85714,-1.60714 5.58316,-1.66145 11.0895,-3.72648 16.25,-6.42857 5.51375,-2.88706 10.87453,-6.23283 15.53571,-10.35714 3.35082,-2.96487 6.49038,-6.31689 8.75,-10.17857 2.11117,-3.60798 2.08557,-8.23131 4.28572,-11.78572 0.86424,-1.3962 2.19886,-2.44419 3.39286,-3.57143 0.73707,-0.69586 2.32142,-1.96428 2.32142,-1.96428 0,0 2.73925,0.70349 4.46429,0.89286 1.49685,0.16431 4.28571,0.35714 4.28571,0.35714 0,0 1.79948,3.89388 3.57143,4.82143 1.68836,0.8838 3.93317,0.85626 5.71429,0.17857 1.45606,-0.554 2.80389,-1.77202 3.39286,-3.21429 0.60801,-1.48888 0.54481,-3.38506 -0.17858,-4.82143 -0.51431,-1.02122 -2.67857,-2.14285 -2.67857,-2.14285 l -3.03571,-0.89286 1.60715,-3.03572 1.38392,0 c 0,0 0.54174,0.16406 0.71428,0 0.35455,-0.33712 0.0739,-1.46586 0.0739,-1.46586 l -1.81498,-3.53414 c 0,0 -0.12704,-2.26151 -0.17857,-3.39285 -0.0705,-1.54716 0.37004,-3.19452 -0.17857,-4.64286 C 384.49327,1.74824 383.64566,1.28518 383.1858,0.57508997 382.10056,-1.10069 381.69426,-3.17677 380.50723,-4.78205 c -1.02632,-1.38795 -2.36551,-2.54045 -3.75,-3.57143 -1.5396,-1.14649 -3.22761,-2.11996 -5,-2.85714 -1.65336,-0.68767 -3.38814,-1.39964 -5.17857,-1.42857 -1.77554,-0.0287 -3.50576,0.65415 -5.17858,1.25 -1.55495,0.55387 -3.1621,1.12849 -4.46428,2.14286 -1.46701,1.14277 -3.57143,4.28571 -3.57143,4.28571 l -2.5,-3.57143 -4.64286,-1.78571 -3.03571,0.53571 -2.32143,-3.21428 -2.67857,0 -1.60714,1.25 -1.42858,2.14285 c 0,0 -2.25003,-1.71698 -3.57142,-2.14285 -2.04662,-0.65961 -4.29019,-0.76156 -6.42858,-0.53572 -2.65915,0.28084 -5.11909,1.54747 -7.67857,2.32143 -21.84562,6.60588 -65.53571,19.82143 -65.53571,19.82143 0.40069,8.09633 1.92063,16.31775 7.67857,24.82143 l 33.57143,-10.53572 0.17857,13.21429 c 0,0 -5.84656,0.20578 -8.75,0.53571 -2.15852,0.24528 -4.38208,0.34256 -6.42857,1.07143 -2.2604,0.80505 -4.40606,2.03605 -6.25,3.57143 -2.69416,2.24332 -5.28669,6.00529 -7.76786,8.48214 -4.5146,4.50674 -9.11861,7.74604 -14.19642,11.60714 -3.10161,2.35842 -6.58376,4.13298 -9.73215,6.42858 -2.43398,1.7747 -4.05234,4.25153 -6.51786,5.98214 -5.11904,3.59319 -10.78956,6.25177 -17.5,8.57143 -3.51011,1.21338 -6.27002,2.21243 -9.46428,4.10714 -4.32621,2.56614 -8.75117,6.21314 -12.58929,9.46429 -2.64057,2.23674 -5.43948,4.71784 -8.21429,6.78571 -2.03895,1.51948 -7.94643,6.07143 -7.94643,6.07143 0,0 -2.58378,-2.4941 -4.82142,-2.14286 -1.32145,0.20743 -2.72177,0.57301 -3.75,1.42857 -2.46403,2.05025 -2.92132,5.23624 -4.10714,8.21429 -0.63056,1.58358 -1.29404,3.43281 -1.96429,5 -1.41525,3.30917 -4.01039,5.97804 -6.07143,8.92857 -1.92973,2.76256 -3.77584,5.5925 -5.89286,8.21429 -1.61492,1.99997 -3.31378,3.94499 -5.17857,5.71428 -1.50391,1.42689 -2.97698,2.98212 -4.82143,3.92857 -2.63359,1.35138 -5.68064,1.68472 -8.57143,2.32143 -2.41783,0.53254 -4.88603,0.80457 -7.32142,1.25 -2.44593,0.44736 -4.94658,0.69185 -7.32143,1.42857 -1.85878,0.57663 -5.35715,2.32143 -5.35715,2.32143 z"
         style="fill:#000000;stroke:#ffffff;stroke-width:0.60000002;stroke-linecap:butt;stroke-linejoin:miter;stroke-miterlimit:4;stroke-opacity:1;stroke-dasharray:none;display:inline" />
      <path
         sodipodi:nodetypes="cc"
         inkscape:connector-curvature="0"
         id="path3776"
         d="m 251.93581,9.81616 c 5.23924,8.28869 7.72055,16.57739 7.72321,24.86608"
         style="fill:none;stroke:#ffffff;stroke-width:0.60000002;stroke-linecap:butt;stroke-linejoin:miter;stroke-miterlimit:4;stroke-opacity:1;stroke-dasharray:none" />
    </g>
  </g>
  <g
     inkscape:groupmode="layer"
     id="layer5"
     inkscape:label="eye"
     transform="translate(-94.755211,-217.49229)">
    <path
       sodipodi:type="arc"
       style="fill:#000000;stroke:none;display:inline"
       id="path3030"
       sodipodi:cx="126.64787"
       sodipodi:cy="365.90039"
       sodipodi:rx="2.6516504"
       sodipodi:ry="4.6088209"
       d="m 129.29952,365.90039 c 0,2.54538 -1.18718,4.60882 -2.65165,4.60882 -1.46446,0 -2.65165,-2.06344 -2.65165,-4.60882 0,-2.54538 1.18719,-4.60882 2.65165,-4.60882 1.46447,0 2.65165,2.06344 2.65165,4.60882 z"
       transform="matrix(1.2619048,0,0,1,-33.864161,0)" />
  </g>
  <g
     inkscape:groupmode="layer"
     id="layer6"
     inkscape:label="gills"
     style="display:inline"
     transform="translate(-94.755211,-217.49229)">
    <path
       style="fill:none;stroke:#000000;stroke-width:1px;stroke-linecap:butt;stroke-linejoin:miter;stroke-opacity:1"
       d="m 226.25,395.57647 c -6.62239,-12.38351 -8.02001,-28.74779 -4.64286,-48.75"
       id="path3033"
       inkscape:connector-curvature="0"
       sodipodi:nodetypes="cc" />
    <path
       style="fill:none;stroke:#000000;stroke-width:1px;stroke-linecap:butt;stroke-linejoin:miter;stroke-opacity:1"
       d="m 236.25,396.29075 c -7.04626,-16.09937 -10.48461,-32.72805 -1.96429,-50.71428"
       id="path3035"
       inkscape:connector-curvature="0"
       sodipodi:nodetypes="cc" />
    <path
       style="fill:none;stroke:#000000;stroke-width:1px;stroke-linecap:butt;stroke-linejoin:miter;stroke-opacity:1"
       d="m 245.17857,345.21932 c -6.75853,11.73617 -4.37677,40.51839 -2.5,50.89286"
       id="path3037"
       inkscape:connector-curvature="0"
       sodipodi:nodetypes="cc" />
    <path
       style="fill:none;stroke:#000000;stroke-width:1px;stroke-linecap:butt;stroke-linejoin:miter;stroke-opacity:1"
       d="m 253.9271,345.50794 c -6.25708,16.88453 -6.16931,34.19205 -7.70242,51.39151"
       id="path3039"
       inkscape:connector-curvature="0"
       sodipodi:nodetypes="cc" />
    <path
       style="fill:none;stroke:#000000;stroke-width:1px;stroke-linecap:butt;stroke-linejoin:miter;stroke-opacity:1"
       d="m 251.27545,391.72242 c 0.75088,-9.40069 0.5081,-16.53014 10.35406,-46.71956"
       id="path3041"
       inkscape:connector-curvature="0"
       sodipodi:nodetypes="cc" />
    <path
       style="fill:none;stroke:#000000;stroke-width:1px;stroke-linecap:butt;stroke-linejoin:miter;stroke-opacity:1;display:inline"
       d="m 390,169.45758 c -1.18459,0.90066 -1.99698,2.24861 -2.67857,3.57143 -0.7591,2.25333 -1.20836,3.98223 -2.32143,6.07143 -5.46403,-3.05188 -3.98382,-2.54377 -8.03571,-6.25 -9.22596,2.79572 -18.63746,5.19624 -27.95685,7.73374 -7.40183,0.77468 -15.12927,-0.0786 -22.14286,2.41072 l -24.73214,4.19643 c -1.11076,0.18847 -2.20236,0.4763 -3.30357,0.71428 -3.72016,0.80395 -7.40454,1.79667 -11.16072,2.41072 -9.25074,1.5123 -18.59796,2.43998 -27.94643,3.125 -11.04856,0.80959 -33.21428,1.16071 -33.21428,1.16071 0,0 -39.94149,-0.12398 -59.91072,-0.35714 -6.84581,-0.0799 -13.691,-0.21099 -20.53571,-0.35715 -7.05423,-0.15063 -14.11675,-0.1268 -21.16072,-0.53571 -5.57903,-0.32387 -11.13793,-0.94024 -16.69643,-1.51786 -5.09653,-0.52961 -10.195851,-1.05772 -15.267851,-1.78571 -6.84347,-0.98226 -13.70092,-1.96687 -20.44643,-3.48214 -4.73467,-1.06357 -14.01786,-3.92858 -14.01786,-3.92858 l -10.44643,-3.83928 -5.08928,-4.28572 c -1.4565,-1.24939 -0.66286,-1.43623 0.71428,-2.05357 0,0 3.09329,-1.54327 4.73214,-2.00893 l 8.67155,-4.03 c 0.89955,-0.73894 2.75703,-2.44321 2.75703,-2.44321 0,0 -1.9688,-0.64152 -2.94643,-0.98214 -0.98688,-0.34384 -1.91175,-0.54566 -2.94643,-0.69262 -0.88595,-0.12584 -2.29834,0.89112 -3.15301,1.15622 l -7.56128,3.46499 -2.67857,0.80357 c 0,0 -3.45702,-0.0388 -5.17857,-0.17859 -2.33276,-0.18935 -4.65959,-0.48542 -6.96428,-0.89286 -2.52402,-0.44621 -5.03998,-0.97666 -7.5,-1.69643 -2.52096,-0.7376 -5.00833,-1.61658 -7.41072,-2.67857 -2.21612,-0.97965 -4.51055,-1.91228 -6.42857,-3.39286 -3.665825,-2.82977 -5.446435,-5.08928 -5.446435,-5.08928 -1.35265,-1.44054 -1.72029,-2.83418 0.44643,-4.10714 0,0 9.515655,-5.56382 14.553575,-7.76786 10.79623,-4.72325 22.1745,-7.99938 33.39286,-11.60714 13.97612,-4.49464 27.90123,-9.31274 42.23214,-12.5 15.366591,-3.4176 31.052881,-5.29527 46.696431,-7.05358 12.01096,-1.35001 24.09236,-2.01478 36.16071,-2.67857 8.26667,-0.45469 16.5856,-0.0469 24.82143,-0.89286 4.05442,-0.41644 8.26841,-0.5422 12.05358,-2.05357 2.52978,-1.01011 4.83275,-2.65461 6.78571,-4.55357 2.09599,-2.03804 3.34697,-4.79528 5.08929,-7.14286 1.97259,-2.65783 3.67413,-5.57499 6.07142,-7.85714 1.73416,-1.65088 3.87318,-2.82122 5.89286,-4.10714 2.55346,-1.62578 5.32052,-2.90165 7.85714,-4.55357 4.19528,-2.73209 7.9066,-6.17119 12.14286,-8.83929 1.80285,-1.13548 3.59195,-2.39832 5.625,-3.03571 1.51476,-0.47492 4.73214,-0.53572 4.73214,-0.53572 0,0 0.49132,2.60767 0.53572,3.92857 0.0731,2.17648 -0.48383,4.34047 -0.44643,6.51786 0.0997,5.80356 0.74226,11.61158 1.78571,17.32143 0.75269,4.11882 1.32143,8.40812 3.21429,12.14286 2.69806,5.32345 11.25,13.92857 11.25,13.92857 0,0 19.10161,4.43161 28.57143,6.96429 10.48161,2.80328 20.78875,6.2288 31.25,9.10714 8.24057,2.26734 16.56753,4.21027 24.82143,6.42857 2.06478,0.55493 3.94701,-2.98271 6.36297,-3.83456 0.66362,-0.23402 4.01252,-1.37953 4.66215,-0.33312 -0.4514,3.16619 -0.21326,7.17476 1.08411,7.543 4.29103,1.21792 8.58187,2.43651 12.89077,3.58897 4.6303,1.23842 9.17322,2.97146 13.92857,3.57142 2.48034,0.31293 5.06688,0.57438 7.5,0 1.81354,-0.42812 3.54963,-1.3301 5,-2.5 6.65675,-5.36946 9.94405,-14.03354 16.07143,-20 6.2691,-6.10445 13.78522,-10.78917 20.89285,-15.89285 5.60549,-4.02506 17.14286,-11.60715 17.14286,-11.60715 l 11.42857,-8.39285 8.75,-5.71429 7.85715,-4.46428 5.35714,-1.07143 1.25,2.5 -5.71429,7.67857 -2.85714,4.10714 1.60714,6.42857 -9.64285,0.35715 0.17857,3.39285 c 0,0 -6.88308,8.29033 -10,12.67857 -4.16904,5.86949 -8.02144,11.97133 -11.60715,18.21429 -2.2673,3.94752 -4.30487,8.02704 -6.25,12.14286 -1.21896,2.57926 -2.84284,5.05787 -3.39285,7.85714 -0.58539,2.97933 -0.33715,6.11496 0.17857,9.10714 0.60745,3.52442 2.34381,6.7595 3.39286,10.17857 1.03368,3.36898 2.0977,6.73739 2.85714,10.17858 0.48083,2.17872 0.26478,4.52691 1.07143,6.60714 0.66851,1.724 2.34208,2.92882 3.03571,4.64286 0.59119,1.46089 0.26899,3.19562 0.89286,4.64285 1.45177,3.36778 6.42857,8.92857 6.42857,8.92857 l -0.35714,3.39286 -3.92857,0.53572 c 0,0 -3.73259,-0.40071 -5.53572,-0.89286 -2.8365,-0.7742 -5.64068,-1.79242 -8.21428,-3.21429 -2.98025,-1.64654 -5.49458,-4.02297 -8.21429,-6.07143 -2.57716,-1.94109 -5.25292,-3.76546 -7.67857,-5.89285 -2.84794,-2.49775 -5.38922,-5.32545 -8.03572,-8.03572 -2.47077,-2.53029 -5.04569,-4.97152 -7.32142,-7.67857 -2.19099,-2.60625 -3.98935,-5.52023 -6.07143,-8.21428 -1.21651,-1.57408 -2.40267,-3.17919 -3.75,-4.64286 -1.22607,-1.33195 -2.43544,-2.72632 -3.92857,-3.75 -0.92239,-0.63239 -2.10799,-0.72915 -3.21429,-0.89286 -2.02354,-0.29945 -3.86388,0.0971 -5.89286,0.35714 -3.80115,0.4872 -7.73962,0.21188 -11.42857,1.25 -1.28515,0.36166 -2.5729,0.88201 -3.62424,1.70487 -1.05134,0.82286 -0.21017,0.0513 -0.29391,0.11496 z"
       id="path3014"
       inkscape:connector-curvature="0"
       sodipodi:nodetypes="scccccsssscsssssscccccccsscccsssssccsssssssssssssscsssscsssscssssssscccccccccccsssssssssscccssssssssssssss"
       transform="translate(94.755211,217.49229)" />
  </g>
  <g
     inkscape:groupmode="layer"
     id="layer3"
     inkscape:label="fins"
     transform="translate(-94.755211,-217.49229)"
     style="display:inline">
    <path
       style="fill:#999999;stroke:#000000;stroke-width:1px;stroke-linecap:butt;stroke-linejoin:miter;stroke-opacity:1"
       d="m 246.78571,397.36218 2.72197,1.4313 3.40926,3.0936 c 0,0 4.96366,5.762 7.57615,8.52316 2.97619,3.14556 6.07339,6.17694 9.21764,9.15451 3.60272,3.41173 7.45168,6.55733 11.04854,9.97525 3.2362,3.0752 6.09104,6.55277 9.47018,9.47018 4.24682,3.66653 8.76387,7.04745 13.51079,10.03839 3.28143,2.06757 6.7241,3.9063 10.29093,5.42957 3.0601,1.30687 6.22854,2.40579 9.47018,3.15673 2.77193,0.64213 5.62103,0.94659 8.46003,1.13642 1.61684,0.10811 4.86136,0 4.86136,0 2.5923,-0.22108 4.30742,-1.08012 3.21986,-3.97747 0,0 -2.73995,-5.38919 -4.23001,-8.01809 -1.63911,-2.89186 -3.28076,-5.79301 -5.17703,-8.52316 -0.87185,-1.25525 -2.17387,-2.22367 -2.84106,-3.59867 -1.14313,-2.35585 -1.04616,-5.14109 -1.8309,-7.63928 -0.50127,-1.59575 -0.98589,-3.22846 -1.8309,-4.67195 -0.75554,-1.29064 -2.04734,-2.20489 -2.84106,-3.4724 -0.98447,-1.57213 -1.60193,-3.34725 -2.33597,-5.05077 -0.62786,-1.4571 -1.36615,-2.88446 -1.76777,-4.41941 -0.28478,-1.08842 -0.78281,-2.27395 -0.44194,-3.34613 0.46925,-1.47597 1.99288,-2.38744 3.15672,-3.40927 1.20232,-1.05561 2.69197,-1.74561 3.91435,-2.77792 1.13691,-0.96013 3.15672,-3.15673 3.15672,-3.15673"
       id="path3000"
       inkscape:connector-curvature="0"
       sodipodi:nodetypes="cccssssssssccsssssssssssc" />
    <path
       style="fill:#999999;stroke:#000000;stroke-width:1px;stroke-linecap:butt;stroke-linejoin:miter;stroke-opacity:1"
       d="m 411.96429,394.68361 c 0,0 2.27165,2.78073 3.75,3.75 1.76556,1.15758 3.86907,1.72016 5.89285,2.32143 2.27163,0.67491 4.70856,0.70229 6.96429,1.42857 2.35869,0.75944 4.4632,2.17194 6.78571,3.03571 1.74741,0.64988 3.52834,1.24487 5.35715,1.60715 1.17361,0.23249 2.18286,0.2905 3.57143,0.35714 1.5282,-0.15668 3.28111,-0.0673 1.96428,-1.78571 -0.69337,-1.21529 -0.93294,-1.55992 -1.42857,-2.32143 -0.63045,-0.96865 -1.22519,-1.96862 -1.96429,-2.85715 -0.32299,-0.3883 -0.9366,-0.58467 -1.07142,-1.07142 -0.13102,-0.47304 0.12875,-0.9941 0.35714,-1.42858 0.62793,-1.19451 2.67857,-3.03571 2.67857,-3.03571 l 1.60714,-1.25"
       id="path3002"
       inkscape:connector-curvature="0"
       sodipodi:nodetypes="csssssccsssscc" />
  </g>
</svg>
